<svg width="140" height="140" viewBox="0 0 140 140" fill="none" xmlns="http://www.w3.org/2000/svg">
<rect width="140" height="140" fill="white"/>
<path d="M72 20H32V120H78C94.5685 120 108 106.569 108 90C108 79.4684 102.573 70.2042 94.3633 64.8514C97.9018 60.1629 100 54.3265 100 48C100 32.536 87.464 20 72 20Z" fill="#041728"/>
<path d="M32 38H70C75.5228 38 80 42.4772 80 48C80 53.5228 75.5228 58 70 58H32V38Z" fill="#FFC701"/>
<path d="M32 76H74C81.732 76 88 82.268 88 90C88 97.732 81.732 104 74 104H32V76Z" fill="#FFC701"/>
</svg>
