<svg width="102" height="102" viewBox="0 0 102 102" fill="none" xmlns="http://www.w3.org/2000/svg">
<g clip-path="url(#clip0_1282_3120)">
<path d="M81 0H21C9.40202 0 0 9.40202 0 21V81C0 92.598 9.40202 102 21 102H81C92.598 102 102 92.598 102 81V21C102 9.40202 92.598 0 81 0Z" fill="#0E7DFF"/>
<path d="M54.8832 84C48.6083 84 43.533 81.4337 40.58 76.5759H40.3955V82.5335H26V17H41.0414V40.922H41.3183C44.2712 36.8892 48.3314 34.2312 54.791 34.2312C67.064 34.2312 75 44.9549 75 59.0698C75 74.6512 67.064 84 54.8832 84ZM50.6384 72.1765C56.5443 72.1765 59.774 67.1354 59.774 58.9781C59.774 50.9124 56.5443 45.5964 50.4539 45.5964C43.8098 45.5964 40.58 51.3707 40.58 59.0698C40.58 66.8605 44.4557 72.1765 50.6384 72.1765Z" fill="white"/>
<path d="M71 17H69C68.4477 17 68 17.4477 68 18V20C68 20.5523 68.4477 21 69 21H71C71.5523 21 72 20.5523 72 20V18C72 17.4477 71.5523 17 71 17Z" fill="white"/>
<path d="M76 17H74C73.4477 17 73 17.4477 73 18V20C73 20.5523 73.4477 21 74 21H76C76.5523 21 77 20.5523 77 20V18C77 17.4477 76.5523 17 76 17Z" fill="white"/>
<path d="M81 17H79C78.4477 17 78 17.4477 78 18V20C78 20.5523 78.4477 21 79 21H81C81.5523 21 82 20.5523 82 20V18C82 17.4477 81.5523 17 81 17Z" fill="white"/>
<path d="M71 22H69C68.4477 22 68 22.4477 68 23V25C68 25.5523 68.4477 26 69 26H71C71.5523 26 72 25.5523 72 25V23C72 22.4477 71.5523 22 71 22Z" fill="white"/>
<path d="M76 22H74C73.4477 22 73 22.4477 73 23V25C73 25.5523 73.4477 26 74 26H76C76.5523 26 77 25.5523 77 25V23C77 22.4477 76.5523 22 76 22Z" fill="white"/>
<path d="M81 22H79C78.4477 22 78 22.4477 78 23V25C78 25.5523 78.4477 26 79 26H81C81.5523 26 82 25.5523 82 25V23C82 22.4477 81.5523 22 81 22Z" fill="white"/>
<path d="M71 27H69C68.4477 27 68 27.4477 68 28V30C68 30.5523 68.4477 31 69 31H71C71.5523 31 72 30.5523 72 30V28C72 27.4477 71.5523 27 71 27Z" fill="white"/>
<path d="M76 27H74C73.4477 27 73 27.4477 73 28V30C73 30.5523 73.4477 31 74 31H76C76.5523 31 77 30.5523 77 30V28C77 27.4477 76.5523 27 76 27Z" fill="white"/>
<path d="M81 27H79C78.4477 27 78 27.4477 78 28V30C78 30.5523 78.4477 31 79 31H81C81.5523 31 82 30.5523 82 30V28C82 27.4477 81.5523 27 81 27Z" fill="white"/>
</g>
<defs>
<clipPath id="clip0_1282_3120">
<rect width="102" height="102" fill="white"/>
</clipPath>
</defs>
</svg>
