<svg width="510" height="510" viewBox="0 0 510 510" fill="none" xmlns="http://www.w3.org/2000/svg">
<rect x="0.900391" y="0.900391" width="508.2" height="508.2" rx="96.8" fill="black"/>
<path d="M153.503 342V98.064H246.199C267.572 98.064 285.809 101.491 300.91 108.344C316.011 115.198 328.324 124.49 337.849 136.223C347.374 147.839 354.344 160.907 358.758 175.427C363.172 189.947 365.379 204.815 365.379 220.032C365.379 233.855 363.23 247.91 358.932 262.198C354.75 276.486 347.955 289.67 338.546 301.751C329.253 313.831 316.882 323.589 301.433 331.023C286.1 338.341 267.224 342 244.805 342H153.503ZM208.563 289.38H250.032C260.603 289.38 269.547 287.347 276.865 283.281C284.299 279.099 290.281 273.582 294.812 266.728C299.458 259.875 302.827 252.383 304.918 244.251C307.125 236.12 308.228 228.047 308.228 220.032C308.228 211.668 307.125 203.363 304.918 195.116C302.827 186.868 299.574 179.376 295.16 172.639C290.746 165.901 285.112 160.5 278.259 156.434C271.405 152.369 263.274 150.336 253.865 150.336H208.563V289.38Z" fill="white"/>
<path d="M377.826 464L425.016 416.81" stroke="white" stroke-width="29.04" stroke-linecap="round"/>
<path d="M84.874 416.555H425.126" stroke="white" stroke-width="29.04" stroke-linecap="round"/>
</svg>
