<svg width="512" height="512" viewBox="0 0 512 512" fill="none" xmlns="http://www.w3.org/2000/svg">
<rect width="512" height="512" fill="#161618"/>
<path d="M113.562 291.778C109.22 291.778 105.786 290.644 103.259 288.376C100.732 286.108 99.4681 283.321 99.4681 280.016V242.692C99.4681 240.553 99.2737 238.706 98.8849 237.151C98.5609 235.596 97.8805 234.397 96.8437 233.555C95.8069 232.648 94.2841 232.194 92.2753 232.194C90.3961 232.194 88.8733 232.615 87.7069 233.458C86.6053 234.3 85.7953 235.434 85.2769 236.86C84.7585 238.285 84.4993 239.97 84.4993 241.914V244.15H92.1781V255.911H84.4993V291H68.9473V255.911H62.4349V244.15H68.9473V238.512C68.9473 234.17 69.8869 230.574 71.7661 227.723C73.6453 224.807 76.3021 222.636 79.7365 221.21C83.1709 219.785 87.1561 219.072 91.6921 219.072C99.7921 219.072 105.689 220.951 109.382 224.71C113.141 228.468 115.02 233.458 115.02 239.678V272.24C115.02 273.925 115.344 275.318 115.992 276.42C116.705 277.457 117.774 277.975 119.2 277.975C120.366 277.975 121.565 277.748 122.796 277.295C124.027 276.841 124.805 276.55 125.129 276.42L127.073 288.959C126.814 289.088 125.939 289.412 124.448 289.931C123.023 290.384 121.338 290.806 119.394 291.194C117.515 291.583 115.571 291.778 113.562 291.778ZM131.697 272.629V239.97H147.249V269.227C147.249 272.338 147.864 274.735 149.096 276.42C150.327 278.04 152.076 278.85 154.344 278.85C155.77 278.85 157.131 278.623 158.427 278.17C159.723 277.651 160.986 276.841 162.218 275.74C163.449 274.638 164.55 273.212 165.522 271.463V239.97H181.074V273.698C181.074 275.254 181.301 276.355 181.755 277.003C182.273 277.586 183.148 277.943 184.379 278.072V291C182.954 291.259 181.69 291.454 180.588 291.583C179.552 291.713 178.612 291.778 177.77 291.778C175.048 291.778 172.877 291.227 171.257 290.125C169.637 288.959 168.633 287.339 168.244 285.265L167.952 282.155C165.62 285.524 162.704 288.019 159.204 289.639C155.77 291.194 151.914 291.972 147.638 291.972C142.454 291.972 138.501 290.32 135.779 287.015C133.058 283.71 131.697 278.915 131.697 272.629ZM193.123 291V239.97H208.675V291H193.123ZM193.123 234.138V220.044H208.675V234.138H193.123ZM216.405 265.436C216.405 260.447 217.377 255.976 219.321 252.023C221.265 248.005 223.922 244.83 227.291 242.497C230.661 240.164 234.549 238.998 238.955 238.998C242.519 238.998 245.759 239.873 248.675 241.622C251.591 243.307 253.795 245.543 255.285 248.329V220.044H270.837V273.698C270.837 275.254 271.096 276.355 271.615 277.003C272.133 277.586 272.975 277.943 274.142 278.072V291C271.42 291.518 269.217 291.778 267.532 291.778C264.875 291.778 262.705 291.194 261.02 290.028C259.4 288.862 258.395 287.242 258.007 285.168L257.715 282.544C255.901 285.719 253.438 288.084 250.328 289.639C247.217 291.194 243.945 291.972 240.511 291.972C237.011 291.972 233.771 291.324 230.791 290.028C227.875 288.667 225.315 286.788 223.112 284.39C220.973 281.993 219.321 279.174 218.155 275.934C216.988 272.694 216.405 269.195 216.405 265.436ZM255.382 271.754V261.062C254.734 259.313 253.795 257.79 252.563 256.494C251.397 255.198 250.036 254.161 248.481 253.384C246.991 252.606 245.468 252.217 243.913 252.217C242.228 252.217 240.673 252.574 239.247 253.286C237.886 253.999 236.687 255.004 235.651 256.3C234.614 257.531 233.804 258.956 233.221 260.576C232.702 262.196 232.443 263.914 232.443 265.728C232.443 267.607 232.735 269.357 233.318 270.977C233.966 272.532 234.841 273.925 235.942 275.156C237.044 276.323 238.34 277.23 239.83 277.878C241.321 278.526 242.941 278.85 244.69 278.85C245.792 278.85 246.861 278.688 247.898 278.364C248.935 277.975 249.907 277.489 250.814 276.906C251.786 276.323 252.661 275.578 253.438 274.67C254.216 273.763 254.864 272.791 255.382 271.754Z" fill="#0061FF"/>
<path d="M282.923 310.882V237.982H299.629V247.06H300.147C300.837 245.449 301.815 243.896 303.081 242.4C304.369 240.904 306.003 239.685 307.982 238.741C309.984 237.775 312.377 237.291 315.162 237.291C318.844 237.291 322.284 238.258 325.482 240.191C328.704 242.124 331.304 245.104 333.283 249.131C335.262 253.158 336.252 258.289 336.252 264.525C336.252 270.531 335.297 275.559 333.387 279.609C331.5 283.659 328.946 286.697 325.724 288.722C322.525 290.747 318.97 291.759 315.058 291.759C312.389 291.759 310.076 291.322 308.12 290.448C306.164 289.573 304.519 288.423 303.184 286.996C301.873 285.569 300.86 284.039 300.147 282.405H299.802V310.882H282.923ZM299.456 264.491C299.456 267.344 299.836 269.83 300.596 271.947C301.378 274.064 302.494 275.709 303.944 276.883C305.416 278.033 307.177 278.608 309.225 278.608C311.296 278.608 313.056 278.033 314.506 276.883C315.956 275.709 317.049 274.064 317.785 271.947C318.544 269.83 318.924 267.344 318.924 264.491C318.924 261.637 318.544 259.164 317.785 257.07C317.049 254.976 315.956 253.353 314.506 252.203C313.079 251.052 311.319 250.477 309.225 250.477C307.154 250.477 305.393 251.041 303.944 252.168C302.494 253.296 301.378 254.907 300.596 257.001C299.836 259.095 299.456 261.591 299.456 264.491ZM360.042 291.897C356.66 291.897 353.657 291.334 351.034 290.206C348.433 289.056 346.374 287.33 344.855 285.029C343.359 282.704 342.611 279.793 342.611 276.296C342.611 273.35 343.129 270.865 344.165 268.84C345.2 266.815 346.627 265.17 348.445 263.904C350.263 262.638 352.357 261.684 354.727 261.039C357.097 260.372 359.628 259.923 362.321 259.693C365.335 259.417 367.763 259.129 369.604 258.83C371.445 258.508 372.779 258.059 373.608 257.484C374.459 256.886 374.885 256.046 374.885 254.964V254.792C374.885 253.02 374.275 251.651 373.055 250.684C371.836 249.718 370.19 249.234 368.119 249.234C365.887 249.234 364.092 249.718 362.735 250.684C361.377 251.651 360.514 252.985 360.146 254.688L344.579 254.136C345.039 250.914 346.224 248.038 348.134 245.507C350.067 242.952 352.713 240.95 356.073 239.501C359.456 238.028 363.517 237.291 368.258 237.291C371.64 237.291 374.758 237.694 377.612 238.5C380.465 239.282 382.95 240.433 385.067 241.951C387.184 243.447 388.818 245.288 389.969 247.474C391.142 249.66 391.729 252.157 391.729 254.964V291H375.851V283.613H375.437C374.494 285.408 373.286 286.927 371.813 288.17C370.363 289.412 368.649 290.344 366.67 290.965C364.714 291.587 362.505 291.897 360.042 291.897ZM365.255 280.852C367.072 280.852 368.706 280.484 370.156 279.747C371.629 279.011 372.802 277.999 373.677 276.71C374.551 275.398 374.988 273.88 374.988 272.154V267.114C374.505 267.367 373.918 267.597 373.228 267.805C372.561 268.012 371.824 268.207 371.019 268.391C370.214 268.575 369.385 268.737 368.534 268.875C367.682 269.013 366.865 269.139 366.083 269.254C364.495 269.507 363.138 269.899 362.01 270.428C360.905 270.957 360.054 271.647 359.456 272.499C358.88 273.327 358.593 274.317 358.593 275.467C358.593 277.216 359.214 278.551 360.457 279.471C361.722 280.392 363.322 280.852 365.255 280.852ZM410.472 310.882C408.447 310.882 406.537 310.721 404.742 310.399C402.947 310.099 401.405 309.697 400.117 309.19L403.845 296.937C405.501 297.489 406.997 297.811 408.332 297.903C409.689 297.995 410.852 297.777 411.818 297.248C412.808 296.741 413.567 295.832 414.096 294.521L414.752 292.933L395.906 237.982H413.578L423.347 275.813H423.899L433.805 237.982H451.582L431.596 296.074C430.63 298.973 429.261 301.528 427.489 303.737C425.74 305.969 423.473 307.718 420.689 308.983C417.928 310.249 414.522 310.882 410.472 310.882Z" fill="#FAFBFA"/>
</svg>
