<svg width="536" height="535" viewBox="0 0 536 535" fill="none" xmlns="http://www.w3.org/2000/svg">
<circle cx="267.957" cy="267.5" r="267.5" fill="#1851FA"/>
<path d="M200.635 437.65L124.895 438.153L122.665 99.3456L192.85 98.8786L193.306 168.054L198.355 168.02C207.125 119.487 239.271 93.5202 298.852 93.1238C376.611 92.6064 420.374 143.82 420.903 224.104C421.431 304.388 379.353 355.668 303.109 356.175C244.537 356.565 212.032 327.999 203.156 283.622L199.621 283.646L200.635 437.65ZM199.262 229.114C199.548 272.537 225.904 287.511 273.367 287.195C321.841 286.872 344.456 270.563 344.154 224.615C343.848 178.161 321.023 162.66 273.055 162.979C224.076 163.305 198.94 180.135 199.235 225.074L199.262 229.114Z" fill="white"/>
<rect y="239.999" width="199" height="54" fill="white"/>
</svg>
